<svg width="22" height="22" viewBox="0 0 22 22" fill="none" xmlns="http://www.w3.org/2000/svg">
<path fill-rule="evenodd" clip-rule="evenodd" d="M2 11C2 6.02944 6.02944 2 11 2C15.9706 2 20 6.02944 20 11C20 15.9706 15.9706 20 11 20C6.02944 20 2 15.9706 2 11ZM11.9091 14.8637C11.9091 15.3657 11.5021 15.7727 11 15.7727C10.4979 15.7727 10.0909 15.3657 10.0909 14.8637C10.0909 14.3616 10.4979 13.9546 11 13.9546C11.5021 13.9546 11.9091 14.3616 11.9091 14.8637ZM10.1818 6.2273V12.5909H11.8182V6.2273H10.1818Z" fill="#FF6B6B"/>
</svg>
