<svg width="21" height="22" viewBox="0 0 21 22" fill="none" xmlns="http://www.w3.org/2000/svg">
<path d="M10.5 2.99805C10.9121 2.99805 11.2461 3.33209 11.2461 3.74416V10.2519H17.7539C18.166 10.2519 18.5 10.586 18.5 10.998C18.5 11.4101 18.166 11.7442 17.7539 11.7442H11.2461V18.2519C11.2461 18.664 10.9121 18.998 10.5 18.998C10.0879 18.998 9.75389 18.664 9.75389 18.2519V11.7442H3.24611C2.83405 11.7442 2.5 11.4101 2.5 10.998C2.5 10.586 2.83405 10.2519 3.24611 10.2519H9.75389V3.74416C9.75389 3.33209 10.0879 2.99805 10.5 2.99805Z" fill="#B0B0B0"/>
</svg>
