<svg width="12" height="12" viewBox="0 0 12 12" fill="none" xmlns="http://www.w3.org/2000/svg">
<path fill-rule="evenodd" clip-rule="evenodd" d="M5.34138 1.53992C5.42391 1.43613 5.57696 1.2832 5.82018 1.2832C6.0634 1.2832 6.21645 1.43613 6.29897 1.53992C6.37508 1.63564 6.45077 1.7665 6.52428 1.89361C6.52815 1.90029 6.532 1.90696 6.53586 1.91362L7.54218 3.65222C7.54567 3.65826 7.54888 3.66379 7.55185 3.66892C7.55761 3.67018 7.56383 3.67154 7.57062 3.67301L9.52477 4.09884C9.53225 4.10047 9.53974 4.1021 9.54725 4.10373C9.6901 4.13481 9.83717 4.16681 9.95115 4.21007C10.0747 4.25697 10.2666 4.35619 10.3417 4.58896C10.4169 4.82173 10.3197 5.01546 10.2471 5.12651C10.1801 5.22893 10.0798 5.34181 9.98241 5.45145C9.97729 5.45721 9.97218 5.46296 9.96708 5.4687L8.63487 6.96904C8.63025 6.97425 8.626 6.97903 8.62208 6.98346C8.62267 6.98936 8.62331 6.99573 8.62401 7.00269L8.82542 9.00446C8.82619 9.01212 8.82696 9.01979 8.82774 9.02747C8.84251 9.1738 8.85772 9.32444 8.85206 9.4469C8.84592 9.57968 8.81143 9.79393 8.61466 9.93779C8.41789 10.0816 8.20474 10.0484 8.07735 10.0133C7.95987 9.98088 7.82221 9.91978 7.68849 9.86043C7.68146 9.85731 7.67444 9.85419 7.66743 9.85108L5.83776 9.03974C5.8314 9.03692 5.82557 9.03434 5.82018 9.03195C5.81478 9.03434 5.80895 9.03692 5.8026 9.03974L3.97293 9.85108C3.96592 9.85419 3.9589 9.8573 3.95187 9.86043C3.81815 9.91978 3.68049 9.98088 3.56301 10.0133C3.43562 10.0484 3.22247 10.0816 3.0257 9.93779C2.82893 9.79393 2.79444 9.57968 2.7883 9.4469C2.78263 9.32445 2.79784 9.17381 2.81261 9.02749C2.81339 9.0198 2.81417 9.01212 2.81494 9.00446L3.01635 7.00269C3.01705 6.99573 3.01769 6.98936 3.01828 6.98346C3.01435 6.97903 3.01011 6.97425 3.00549 6.96904L1.67327 5.4687C1.66818 5.46296 1.66307 5.45721 1.65795 5.45145C1.56053 5.34181 1.46023 5.22893 1.39329 5.12651C1.3207 5.01546 1.22346 4.82173 1.29862 4.58896C1.37378 4.35619 1.56561 4.25697 1.6892 4.21007C1.80318 4.16681 1.95025 4.13481 2.0931 4.10373C2.10061 4.1021 2.10811 4.10047 2.11559 4.09884L4.06974 3.67301C4.07652 3.67154 4.08275 3.67018 4.08851 3.66892C4.09148 3.66379 4.09469 3.65826 4.09818 3.65222L5.1045 1.91362C5.10835 1.90696 5.11221 1.90029 5.11607 1.89361C5.18959 1.7665 5.26527 1.63564 5.34138 1.53992Z" fill="#FF6B6B" stroke="#FF6B6B" stroke-width="1.30265" stroke-linejoin="round"/>
</svg>
